<?xml version="1.0" encoding="UTF-8" standalone="no"?>
<!-- Generator: Adobe Illustrator 15.0.0, SVG Export Plug-In . SVG Version: 6.00 Build 0)  -->

<svg
   xmlns:dc="http://purl.org/dc/elements/1.1/"
   xmlns:cc="http://creativecommons.org/ns#"
   xmlns:rdf="http://www.w3.org/1999/02/22-rdf-syntax-ns#"
   xmlns:svg="http://www.w3.org/2000/svg"
   xmlns="http://www.w3.org/2000/svg"
   xmlns:sodipodi="http://sodipodi.sourceforge.net/DTD/sodipodi-0.dtd"
   xmlns:inkscape="http://www.inkscape.org/namespaces/inkscape"
   version="1.1"
   id="Layer_1"
   x="0px"
   y="0px"
   width="1558.8422"
   height="252.774"
   viewBox="0 0 1558.8422 252.774"
   enable-background="new 0 0 1615.272 307.272"
   xml:space="preserve"
   inkscape:version="0.91 r13725"
   sodipodi:docname="SitLogoOhneJahr.svg"><metadata
     id="metadata21"><rdf:RDF><cc:Work
         rdf:about=""><dc:format>image/svg+xml</dc:format><dc:type
           rdf:resource="http://purl.org/dc/dcmitype/StillImage" /><dc:title></dc:title></cc:Work></rdf:RDF></metadata><defs
     id="defs19" /><sodipodi:namedview
     pagecolor="#ffffff"
     bordercolor="#666666"
     borderopacity="1"
     objecttolerance="10"
     gridtolerance="10"
     guidetolerance="10"
     inkscape:pageopacity="0"
     inkscape:pageshadow="2"
     inkscape:window-width="1876"
     inkscape:window-height="1078"
     id="namedview17"
     showgrid="false"
     inkscape:zoom="0.5"
     inkscape:cx="705.75666"
     inkscape:cy="162.45736"
     inkscape:window-x="0"
     inkscape:window-y="0"
     inkscape:window-maximized="1"
     inkscape:current-layer="Layer_1"
     fit-margin-top="0"
     fit-margin-left="0"
     fit-margin-right="0"
     fit-margin-bottom="0" /><path
     d="m 423.619,134.847 -160.1,0 c -3.647,0 -7.522,-3.208 -7.522,-6.983 l 0,-16.923 c 0,4.567 0.079,-5.373 7.601,-5.104 7.521,0.269 157.363,0 157.363,0 0,0 20.562,-0.299 20.562,-20.415 0,-20.116 -20.831,-19.609 -20.831,-19.609 0,0 -177.655,-0.269 -187.527,-0.269 -9.873,0 -16.924,7.79 -16.924,14.773 l 0,76.29 c 0,10.476 11.282,18.533 17.999,18.533 l 159.023,0 c 8.596,0 12.089,2.418 11.82,7.255 -0.269,4.835 -0.538,22.295 -0.269,18.266 0.269,-4.03 2.418,8.058 -6.446,8.058 l -380.639,0 c 0,0 -17.729,0.41 -17.729,20.146 0,19.737 17.999,20.146 17.999,20.146 l 408.277,0 c 5.103,0 18.026,-4.209 18.026,-20.058 l 0,-75.034 c 0,-11.013 -8.864,-19.072 -20.683,-19.072 z m 65.81,-65.274 c -19.877,0 -19.877,15.849 -19.877,15.849 l 0,149.892 c 0,0 -1.342,17.46 19.61,17.46 20.952,0 20.952,-17.729 20.952,-17.729 l 0,-148.549 c 0,0 -0.806,-16.923 -20.685,-16.923 z M 1542.182,0 235.85,0.268 c 0,0 -15.311,1.074 -15.311,20.146 0,19.073 16.386,19.342 16.386,19.342 l 296.023,0 c 6.984,0 6.446,5.909 6.446,5.909 l 0,189.648 c 0,0 0,17.46 19.878,17.46 19.878,0 19.609,-17.46 19.609,-17.46 l 0,-189.916 c 0,-5.641 7.791,-5.640997 7.791,-5.640997 l 956.047,-3e-6 c 0,0 15.852,-2.687 16.12,-20.416 C 1559.106,1.611 1542.182,0 1542.182,0 Z"
     id="path7"
     inkscape:connector-curvature="0"
     style="clip-rule:evenodd;fill:#000000;fill-rule:evenodd;fill-opacity:1"
     sodipodi:nodetypes="ssscscscsssssccscscsssssccsccsccscsccscscccc" /><text
     xml:space="preserve"
     style="font-style:normal;font-variant:normal;font-weight:normal;font-stretch:normal;font-size:63.65718842px;line-height:120.00000477%;font-family:sans-serif;-inkscape-font-specification:'sans-serif, Normal';text-align:start;letter-spacing:0px;word-spacing:0px;writing-mode:lr-tb;text-anchor:start;fill:#ff8000;fill-opacity:1;stroke:none;stroke-width:1px;stroke-linecap:butt;stroke-linejoin:miter;stroke-opacity:1;"
     x="1068.2397"
     y="136.42889"
     id="text4170"
     sodipodi:linespacing="120%"><tspan
       sodipodi:role="line"
       id="tspan4172"
       x="1068.2397"
       y="136.42889"
       style="font-style:normal;font-variant:normal;font-weight:normal;font-stretch:normal;font-size:90.71149445px;font-family:'BoomBox 2';-inkscape-font-specification:'BoomBox 2, ';text-align:center;text-anchor:middle;fill:#ff8000;fill-opacity:1;">studentische</tspan><tspan
       sodipodi:role="line"
       x="1068.2397"
       y="234.56599"
       id="tspan4174"
       style="font-style:normal;font-variant:normal;font-weight:normal;font-stretch:normal;font-size:80.84464264px;font-family:'BoomBox 2';-inkscape-font-specification:'BoomBox 2, ';text-align:center;text-anchor:middle;fill:#ff8000;fill-opacity:1;">InformatikTage</tspan></text>
</svg>