<?xml version="1.0" encoding="UTF-8" standalone="no"?>
<!-- Created with Inkscape (http://www.inkscape.org/) -->

<svg
   xmlns:dc="http://purl.org/dc/elements/1.1/"
   xmlns:cc="http://creativecommons.org/ns#"
   xmlns:rdf="http://www.w3.org/1999/02/22-rdf-syntax-ns#"
   xmlns:svg="http://www.w3.org/2000/svg"
   xmlns="http://www.w3.org/2000/svg"
   xmlns:sodipodi="http://sodipodi.sourceforge.net/DTD/sodipodi-0.dtd"
   xmlns:inkscape="http://www.inkscape.org/namespaces/inkscape"
   width="43.333298mm"
   height="41.421486mm"
   viewBox="0 0 153.54318 146.76904"
   id="svg2"
   version="1.1"
   inkscape:version="0.91 r13725"
   sodipodi:docname="favicon.svg">
  <defs
     id="defs4" />
  <sodipodi:namedview
     id="base"
     pagecolor="#ffffff"
     bordercolor="#666666"
     borderopacity="1.0"
     inkscape:pageopacity="0.0"
     inkscape:pageshadow="2"
     inkscape:zoom="2"
     inkscape:cx="-28.172705"
     inkscape:cy="51.559396"
     inkscape:document-units="px"
     inkscape:current-layer="layer1"
     showgrid="false"
     inkscape:window-width="1876"
     inkscape:window-height="1078"
     inkscape:window-x="0"
     inkscape:window-y="0"
     inkscape:window-maximized="1"
     fit-margin-top="0"
     fit-margin-left="0"
     fit-margin-right="0"
     fit-margin-bottom="0" />
  <metadata
     id="metadata7">
    <rdf:RDF>
      <cc:Work
         rdf:about="">
        <dc:format>image/svg+xml</dc:format>
        <dc:type
           rdf:resource="http://purl.org/dc/dcmitype/StillImage" />
        <dc:title></dc:title>
      </cc:Work>
    </rdf:RDF>
  </metadata>
  <g
     inkscape:label="Layer 1"
     inkscape:groupmode="layer"
     id="layer1"
     transform="translate(-78.286819,-705.87988)">
    <rect
       style="opacity:1;fill:#000000;fill-opacity:1;fill-rule:nonzero;stroke:none;stroke-width:0.1;stroke-linecap:butt;stroke-linejoin:miter;stroke-miterlimit:4;stroke-dasharray:none;stroke-dashoffset:0;stroke-opacity:1"
       id="rect4156"
       width="153.54318"
       height="26.769043"
       x="78.286819"
       y="705.87988" />
    <path
       style="opacity:1;fill:#ff8001;fill-opacity:1;fill-rule:nonzero;stroke:none;stroke-width:0.1;stroke-linecap:butt;stroke-linejoin:miter;stroke-miterlimit:4;stroke-dasharray:none;stroke-dashoffset:0;stroke-opacity:1"
       d="m 108.59139,765.87988 15.40483,0 15.40482,0 15.40483,0 15.40482,0 15.40483,0 15.40483,0 15.40482,0 15.40483,0 0,3.34613 0,3.34613 0,3.34613 0,3.34613 0,3.34614 0,3.34613 0,3.34613 0,3.34613 -15.40483,0 -15.40482,0 -15.40483,0 -15.40483,0 -15.40482,0 -15.40483,0 -15.40482,0 c -11.12561,0 -15.40483,-8.10722 -15.40483,-13.38453 z"
       id="rect4158"
       inkscape:connector-curvature="0"
       sodipodi:nodetypes="cccccccccccccccccccccccccc" />
    <rect
       style="opacity:1;fill:#000000;fill-opacity:1;fill-rule:nonzero;stroke:none;stroke-width:0.1;stroke-linecap:butt;stroke-linejoin:miter;stroke-miterlimit:4;stroke-dasharray:none;stroke-dashoffset:0;stroke-opacity:1"
       id="rect4160"
       width="153.54318"
       height="26.769043"
       x="78.286819"
       y="825.87988" />
    <path
       style="opacity:1;fill:#ff8001;fill-opacity:1;fill-rule:nonzero;stroke:none;stroke-width:0.1;stroke-linecap:butt;stroke-linejoin:miter;stroke-miterlimit:4;stroke-dasharray:none;stroke-dashoffset:0;stroke-opacity:1"
       d="m 105.5609,748.2308 0,15.5311 0,23.5311 c 0,5.90431 -6.629084,11.5915 -13.3849,11.53263 -6.755817,-0.0589 -13.384,-5.7473 -13.384,-11.53263 l 0,-23.5311 -9.9e-5,-15.5311 c -3.7e-5,-5.76924 6.675602,-11.32365 13.384099,-11.33173 6.708496,-0.008 13.3849,5.5464 13.3849,11.33173 z"
       id="rect4169"
       inkscape:connector-curvature="0"
       sodipodi:nodetypes="zcsszcssz" />
    <rect
       style="opacity:1;fill:#000000;fill-opacity:1;fill-rule:nonzero;stroke:none;stroke-width:0.1;stroke-linecap:butt;stroke-linejoin:miter;stroke-miterlimit:4;stroke-dasharray:none;stroke-dashoffset:0;stroke-opacity:1"
       id="rect4171"
       width="26.768999"
       height="26.769043"
       x="205.00703"
       y="795.78345" />
  </g>
</svg>
