<?xml version="1.0" encoding="UTF-8" standalone="no"?>
<svg
   xmlns:dc="http://purl.org/dc/elements/1.1/"
   xmlns:cc="http://creativecommons.org/ns#"
   xmlns:rdf="http://www.w3.org/1999/02/22-rdf-syntax-ns#"
   xmlns:svg="http://www.w3.org/2000/svg"
   xmlns="http://www.w3.org/2000/svg"
   xml:space="preserve"
   enable-background="new 0 0 1615.272 307.272"
   viewBox="0 0 1558.8422 252.774"
   height="252.774"
   width="1558.8422"
   y="0px"
   x="0px"
   id="Layer_1"
   version="1.1"><metadata
     id="metadata21"><rdf:RDF><cc:Work
         rdf:about=""><dc:format>image/svg+xml</dc:format><dc:type
           rdf:resource="http://purl.org/dc/dcmitype/StillImage" /><dc:title></dc:title></cc:Work></rdf:RDF></metadata><defs
     id="defs19" /><path
     style="clip-rule:evenodd;fill:#000000;fill-rule:evenodd;fill-opacity:1"
     id="path7"
     d="m 423.619,134.847 -160.1,0 c -3.647,0 -7.522,-3.208 -7.522,-6.983 l 0,-16.923 c 0,4.567 0.079,-5.373 7.601,-5.104 7.521,0.269 157.363,0 157.363,0 0,0 20.562,-0.299 20.562,-20.415 0,-20.116 -20.831,-19.609 -20.831,-19.609 0,0 -177.655,-0.269 -187.527,-0.269 -9.873,0 -16.924,7.79 -16.924,14.773 l 0,76.29 c 0,10.476 11.282,18.533 17.999,18.533 l 159.023,0 c 8.596,0 12.089,2.418 11.82,7.255 -0.269,4.835 -0.538,22.295 -0.269,18.266 0.269,-4.03 2.418,8.058 -6.446,8.058 l -380.639,0 c 0,0 -17.729,0.41 -17.729,20.146 0,19.737 17.999,20.146 17.999,20.146 l 408.277,0 c 5.103,0 18.026,-4.209 18.026,-20.058 l 0,-75.034 c 0,-11.013 -8.864,-19.072 -20.683,-19.072 z m 65.81,-65.274 c -19.877,0 -19.877,15.849 -19.877,15.849 l 0,149.892 c 0,0 -1.342,17.46 19.61,17.46 20.952,0 20.952,-17.729 20.952,-17.729 l 0,-148.549 c 0,0 -0.806,-16.923 -20.685,-16.923 z M 1542.182,0 235.85,0.268 c 0,0 -15.311,1.074 -15.311,20.146 0,19.073 16.386,19.342 16.386,19.342 l 296.023,0 c 6.984,0 6.446,5.909 6.446,5.909 l 0,189.648 c 0,0 0,17.46 19.878,17.46 19.878,0 19.609,-17.46 19.609,-17.46 l 0,-189.916 c 0,-5.641 7.791,-5.640997 7.791,-5.640997 l 956.047,-3e-6 c 0,0 15.852,-2.687 16.12,-20.416 C 1559.106,1.611 1542.182,0 1542.182,0 Z" /><g
     id="text4170"
     style="font-style:normal;font-variant:normal;font-weight:normal;font-stretch:normal;font-size:63.65718842px;line-height:120.00000477%;font-family:sans-serif;-inkscape-font-specification:'sans-serif, Normal';text-align:start;letter-spacing:0px;word-spacing:0px;writing-mode:lr-tb;text-anchor:start;fill:#ff8000;fill-opacity:1;stroke:none;stroke-width:1px;stroke-linecap:butt;stroke-linejoin:miter;stroke-opacity:1"><path
       id="path4137"
       style="font-style:normal;font-variant:normal;font-weight:normal;font-stretch:normal;font-size:90.71149445px;font-family:'BoomBox 2';-inkscape-font-specification:'BoomBox 2, ';text-align:center;text-anchor:middle;fill:#ff8000;fill-opacity:1"
       d="m 677.92307,119.01229 q 0,7.16621 -5.17056,12.33676 -5.07984,5.07984 -12.24605,5.07984 l -52.34053,0 0,-17.4166 50.5263,0 q 1.81423,0 1.81423,-1.81423 l 0,-9.52471 q 0,-1.81423 -1.81423,-1.81423 l -33.10969,0 q -7.25692,0 -12.33677,-5.07984 -5.07984,-5.079847 -5.07984,-12.336767 l 0,-13.062455 q 0,-7.256919 5.07984,-12.336763 5.07985,-5.079844 12.33677,-5.079844 l 43.63222,0 0,17.416607 -41.90871,0 q -0.72569,0 -1.26996,0.544269 -0.45355,0.453558 -0.45355,1.17925 l 0,9.615418 q 0,0.725692 0.45355,1.269961 0.54427,0.453557 1.26996,0.453557 l 33.20041,0 q 7.16621,0 12.24605,5.170556 5.17056,5.079843 5.17056,12.246051 l 0,13.15317 z" /><path
       id="path4139"
       style="font-style:normal;font-variant:normal;font-weight:normal;font-stretch:normal;font-size:90.71149445px;font-family:'BoomBox 2';-inkscape-font-specification:'BoomBox 2, ';text-align:center;text-anchor:middle;fill:#ff8000;fill-opacity:1"
       d="m 755.93354,75.380058 -30.47907,0 0,61.048832 -17.4166,0 0,-61.048832 -30.56978,0 0,-17.416607 78.46545,0 0,17.416607 z" /><path
       id="path4141"
       style="font-style:normal;font-variant:normal;font-weight:normal;font-stretch:normal;font-size:90.71149445px;font-family:'BoomBox 2';-inkscape-font-specification:'BoomBox 2, ';text-align:center;text-anchor:middle;fill:#ff8000;fill-opacity:1"
       d="m 834.38623,119.01229 q 0,7.16621 -5.17056,12.33676 -5.07984,5.07984 -12.24605,5.07984 l -34.92392,0 q -7.16621,0 -12.33677,-5.07984 -5.07984,-5.17055 -5.07984,-12.33676 l 0,-61.048839 17.41661,0 0,59.234609 q 0,0.45355 0.36284,1.17925 0.45356,0.63498 1.36067,0.63498 l 31.38618,0 q 1.81423,0 1.81423,-1.81423 l 0,-59.234609 17.41661,0 0,61.048839 z" /><path
       id="path4143"
       style="font-style:normal;font-variant:normal;font-weight:normal;font-stretch:normal;font-size:90.71149445px;font-family:'BoomBox 2';-inkscape-font-specification:'BoomBox 2, ';text-align:center;text-anchor:middle;fill:#ff8000;fill-opacity:1"
       d="m 917.22425,119.01229 q 0,7.16621 -5.17056,12.33676 -5.07984,5.07984 -12.24605,5.07984 l -52.34053,0 0,-78.465439 52.34053,0 q 7.16621,0 12.24605,5.170556 5.17056,5.079843 5.17056,12.246051 l 0,43.632232 z m -17.41661,-1.81423 0,-40.094483 q 0,-1.723519 -1.81423,-1.723519 l -33.1097,0 0,43.632232 33.1097,0 q 1.81423,0 1.81423,-1.81423 z" /><path
       id="path4145"
       style="font-style:normal;font-variant:normal;font-weight:normal;font-stretch:normal;font-size:90.71149445px;font-family:'BoomBox 2';-inkscape-font-specification:'BoomBox 2, ';text-align:center;text-anchor:middle;fill:#ff8000;fill-opacity:1"
       d="m 999.60869,136.42889 -69.75714,0 0,-78.465439 69.75714,0 0,17.416607 -52.34053,0 0,13.062455 47.98638,0 0,17.416607 -47.98638,0 0,13.15317 52.34053,0 0,17.4166 z" /><path
       id="path4147"
       style="font-style:normal;font-variant:normal;font-weight:normal;font-stretch:normal;font-size:90.71149445px;font-family:'BoomBox 2';-inkscape-font-specification:'BoomBox 2, ';text-align:center;text-anchor:middle;fill:#ff8000;fill-opacity:1"
       d="m 1089.8156,136.42889 -17.4166,0 q -3.9913,0 -7.0755,-2.26778 -2.3585,-1.72352 -4.9891,-5.62412 l -30.0255,-44.811474 q -0.7257,-0.997827 -1.5421,-0.997827 l 0,53.701201 -17.4166,0 0,-78.465439 17.4166,0 q 4.082,0 7.0755,2.177076 2.3585,1.632807 4.9891,5.624113 l 29.9348,44.81148 q 0.8164,1.08854 1.6328,1.08854 l 0,-53.701209 17.4166,0 0,78.465439 z" /><path
       id="path4149"
       style="font-style:normal;font-variant:normal;font-weight:normal;font-stretch:normal;font-size:90.71149445px;font-family:'BoomBox 2';-inkscape-font-specification:'BoomBox 2, ';text-align:center;text-anchor:middle;fill:#ff8000;fill-opacity:1"
       d="m 1177.3345,75.380058 -30.4791,0 0,61.048832 -17.4166,0 0,-61.048832 -30.5698,0 0,-17.416607 78.4655,0 0,17.416607 z" /><path
       id="path4151"
       style="font-style:normal;font-variant:normal;font-weight:normal;font-stretch:normal;font-size:90.71149445px;font-family:'BoomBox 2';-inkscape-font-specification:'BoomBox 2, ';text-align:center;text-anchor:middle;fill:#ff8000;fill-opacity:1"
       d="m 1203.7231,136.42889 -17.4167,0 0,-78.465439 17.4167,0 0,78.465439 z" /><path
       id="path4153"
       style="font-style:normal;font-variant:normal;font-weight:normal;font-stretch:normal;font-size:90.71149445px;font-family:'BoomBox 2';-inkscape-font-specification:'BoomBox 2, ';text-align:center;text-anchor:middle;fill:#ff8000;fill-opacity:1"
       d="m 1285.7964,119.01229 q 0,7.16621 -5.1706,12.33676 -5.0798,5.07984 -12.246,5.07984 l -52.3406,0 0,-17.4166 50.5263,0 q 1.8143,0 1.8143,-1.81423 l 0,-9.52471 q 0,-1.81423 -1.8143,-1.81423 l -33.1097,0 q -7.2569,0 -12.3367,-5.07984 -5.0799,-5.079847 -5.0799,-12.336767 l 0,-13.062455 q 0,-7.256919 5.0799,-12.336763 5.0798,-5.079844 12.3367,-5.079844 l 43.6323,0 0,17.416607 -41.9088,0 q -0.7256,0 -1.2699,0.544269 -0.4536,0.453558 -0.4536,1.17925 l 0,9.615418 q 0,0.725692 0.4536,1.269961 0.5443,0.453557 1.2699,0.453557 l 33.2005,0 q 7.1662,0 12.246,5.170556 5.1706,5.079843 5.1706,12.246051 l 0,13.15317 z" /><path
       id="path4155"
       style="font-style:normal;font-variant:normal;font-weight:normal;font-stretch:normal;font-size:90.71149445px;font-family:'BoomBox 2';-inkscape-font-specification:'BoomBox 2, ';text-align:center;text-anchor:middle;fill:#ff8000;fill-opacity:1"
       d="m 1366.9534,136.42889 -52.3405,0 q -7.1662,0 -12.3368,-5.07984 -5.1705,-5.07984 -5.1705,-12.33676 l 0,-43.632232 q 0,-7.256919 5.0798,-12.336763 5.0799,-5.079844 12.3368,-5.079844 l 52.4312,0 0,17.416607 -50.617,0 q -0.4536,0 -1.1792,0.453558 -0.635,0.362846 -0.635,1.269961 l 0,40.094483 q 0,0.45355 0.3628,1.17925 0.4536,0.63498 1.3607,0.63498 l 50.7077,0 0,17.4166 z" /><path
       id="path4157"
       style="font-style:normal;font-variant:normal;font-weight:normal;font-stretch:normal;font-size:90.71149445px;font-family:'BoomBox 2';-inkscape-font-specification:'BoomBox 2, ';text-align:center;text-anchor:middle;fill:#ff8000;fill-opacity:1"
       d="m 1445.3707,136.42889 -17.4167,0 0,-30.56977 -34.9239,0 0,30.56977 -17.4166,0 0,-78.465439 17.4166,0 0,30.479062 34.9239,0 0,-30.479062 17.4167,0 0,78.465439 z" /><path
       id="path4159"
       style="font-style:normal;font-variant:normal;font-weight:normal;font-stretch:normal;font-size:90.71149445px;font-family:'BoomBox 2';-inkscape-font-specification:'BoomBox 2, ';text-align:center;text-anchor:middle;fill:#ff8000;fill-opacity:1"
       d="m 1528.8182,136.42889 -69.7572,0 0,-78.465439 69.7572,0 0,17.416607 -52.3406,0 0,13.062455 47.9864,0 0,17.416607 -47.9864,0 0,13.15317 52.3406,0 0,17.4166 z" /><path
       id="path4161"
       style="font-style:normal;font-variant:normal;font-weight:normal;font-stretch:normal;font-size:80.84464264px;font-family:'BoomBox 2';-inkscape-font-specification:'BoomBox 2, ';text-align:center;text-anchor:middle;fill:#ff8000;fill-opacity:1"
       d="m 624.10012,234.56599 -15.52217,0 0,-69.93061 15.52217,0 0,69.93061 z" /><path
       id="path4163"
       style="font-style:normal;font-variant:normal;font-weight:normal;font-stretch:normal;font-size:80.84464264px;font-family:'BoomBox 2';-inkscape-font-specification:'BoomBox 2, ';text-align:center;text-anchor:middle;fill:#ff8000;fill-opacity:1"
       d="m 706.14101,234.56599 -15.52217,0 q -3.55716,0 -6.30588,-2.02111 -2.10196,-1.53605 -4.44646,-5.01237 l -26.75957,-39.93725 q -0.64676,-0.88929 -1.37436,-0.88929 l 0,47.86002 -15.52217,0 0,-69.93061 15.52217,0 q 3.63801,0 6.30588,1.94027 2.10196,1.4552 4.44646,5.01237 l 26.67873,39.93725 q 0.7276,0.97014 1.4552,0.97014 l 0,-47.86003 15.52217,0 0,69.93061 z" /><path
       id="path4165"
       style="font-style:normal;font-variant:normal;font-weight:normal;font-stretch:normal;font-size:80.84464264px;font-family:'BoomBox 2';-inkscape-font-specification:'BoomBox 2, ';text-align:center;text-anchor:middle;fill:#ff8000;fill-opacity:1"
       d="m 776.60723,180.15755 -42.76682,0 0,11.64163 38.88627,0 0,15.52217 -38.88627,0 0,27.24464 -15.52217,0 0,-69.93061 58.28899,0 0,15.52217 z" /><path
       id="path4167"
       style="font-style:normal;font-variant:normal;font-weight:normal;font-stretch:normal;font-size:80.84464264px;font-family:'BoomBox 2';-inkscape-font-specification:'BoomBox 2, ';text-align:center;text-anchor:middle;fill:#ff8000;fill-opacity:1"
       d="m 855.02147,219.04382 q 0,6.38673 -4.60814,10.99487 -4.5273,4.5273 -10.91403,4.5273 l -38.88627,0 q -6.38673,0 -10.99488,-4.5273 -4.5273,-4.60814 -4.5273,-10.99487 l 0,-38.88627 q 0,-6.46757 4.5273,-10.99487 4.5273,-4.5273 10.99488,-4.5273 l 38.88627,0 q 6.46757,0 10.99487,4.5273 4.5273,4.5273 4.5273,10.99487 l 0,38.88627 z m -15.52217,-1.61689 0,-35.73333 q 0,-0.64676 -0.48507,-1.05098 -0.40422,-0.48507 -1.05098,-0.48507 l -35.81418,0 q -0.64675,0 -1.13182,0.48507 -0.40422,0.40422 -0.40422,1.05098 l 0,35.73333 q 0,0.40422 0.32337,1.05098 0.40423,0.56591 1.21267,0.56591 l 35.81418,0 q 1.53605,0 1.53605,-1.61689 z" /><path
       id="path4169"
       style="font-style:normal;font-variant:normal;font-weight:normal;font-stretch:normal;font-size:80.84464264px;font-family:'BoomBox 2';-inkscape-font-specification:'BoomBox 2, ';text-align:center;text-anchor:middle;fill:#ff8000;fill-opacity:1"
       d="m 928.43977,234.56599 -15.52217,0 0,-25.62775 q 0,-1.61689 -1.61689,-1.61689 l -29.5083,0 0,27.24464 -15.52217,0 0,-69.93061 46.64736,0 q 6.38673,0 10.91403,4.60814 4.60814,4.5273 4.60814,10.91403 l 0,11.64163 q 0,2.26365 -0.7276,4.44645 -0.64676,2.10196 -2.1828,3.31463 1.37435,1.13183 2.10196,3.47632 0.80844,2.26365 0.80844,4.28477 l 0,27.24464 z m -15.52217,-44.30286 0,-8.56953 q 0,-1.53605 -1.61689,-1.53605 l -29.5083,0 0,11.64163 29.5083,0 q 0.40422,0 0.80844,-0.24254 0.80845,-0.48506 0.80845,-1.29351 z" /><path
       id="path4171"
       style="font-style:normal;font-variant:normal;font-weight:normal;font-stretch:normal;font-size:80.84464264px;font-family:'BoomBox 2';-inkscape-font-specification:'BoomBox 2, ';text-align:center;text-anchor:middle;fill:#ff8000;fill-opacity:1"
       d="m 1017.859,234.56599 -15.5222,0 0,-47.86002 q -0.8084,0 -1.3743,0.88929 l -11.23743,16.97737 q -2.26365,3.31463 -4.44645,4.93152 -2.74872,2.02112 -6.30589,2.02112 -3.55716,0 -6.22503,-1.94027 -2.26365,-1.61689 -4.44646,-5.01237 l -11.2374,-16.97737 q -0.56592,-0.88929 -1.37436,-0.88929 l 0,47.86002 -15.52217,0 0,-69.93061 15.52217,0 q 3.55716,0 6.30588,1.94027 2.18281,1.53605 4.44646,5.01237 l 11.15656,16.97737 q 0.56591,0.88929 1.37435,0.88929 0.8893,0 1.45521,-0.88929 l 11.15656,-16.97737 q 2.26365,-3.39548 4.44645,-5.01237 2.66788,-1.94027 6.30585,-1.94027 l 15.5222,0 0,69.93061 z" /><path
       id="path4173"
       style="font-style:normal;font-variant:normal;font-weight:normal;font-stretch:normal;font-size:80.84464264px;font-family:'BoomBox 2';-inkscape-font-specification:'BoomBox 2, ';text-align:center;text-anchor:middle;fill:#ff8000;fill-opacity:1"
       d="m 1076.3362,211.28274 -11.1566,-24.73846 q -0.485,-0.97014 -1.3743,-0.97014 -0.9702,0 -1.4552,0.97014 l -11.2374,24.73846 25.2235,0 z m 27.9722,23.28325 -17.0582,0 -5.4166,-11.64162 -36.1375,0 -5.4166,11.64162 -17.1391,0 29.8317,-64.02895 q 3.2338,-7.03349 10.7523,-7.03349 3.638,0 6.3868,1.85943 2.7487,1.85943 4.2847,5.17406 l 29.9125,64.02895 z" /><path
       id="path4175"
       style="font-style:normal;font-variant:normal;font-weight:normal;font-stretch:normal;font-size:80.84464264px;font-family:'BoomBox 2';-inkscape-font-specification:'BoomBox 2, ';text-align:center;text-anchor:middle;fill:#ff8000;fill-opacity:1"
       d="m 1158.6784,180.15755 -27.1638,0 0,54.40844 -15.5222,0 0,-54.40844 -27.2446,0 0,-15.52217 69.9306,0 0,15.52217 z" /><path
       id="path4177"
       style="font-style:normal;font-variant:normal;font-weight:normal;font-stretch:normal;font-size:80.84464264px;font-family:'BoomBox 2';-inkscape-font-specification:'BoomBox 2, ';text-align:center;text-anchor:middle;fill:#ff8000;fill-opacity:1"
       d="m 1182.1966,234.56599 -15.5222,0 0,-69.93061 15.5222,0 0,69.93061 z" /><path
       id="path4179"
       style="font-style:normal;font-variant:normal;font-weight:normal;font-stretch:normal;font-size:80.84464264px;font-family:'BoomBox 2';-inkscape-font-specification:'BoomBox 2, ';text-align:center;text-anchor:middle;fill:#ff8000;fill-opacity:1"
       d="m 1252.8365,234.56599 -16.0073,0 -8.5695,-25.62775 q -0.5659,-1.61689 -2.3445,-1.61689 l -16.3306,0 0,27.24464 -15.603,0 0,-69.93061 15.5222,0 0,27.1638 8.5695,0 q 0.9701,0 1.536,-1.53605 l 10.9141,-25.62775 16.4923,0 -12.2076,28.37647 q 1.6978,0 3.7189,2.26365 1.7786,2.02111 2.4253,3.88054 l 11.8842,35.40995 z" /><path
       id="path4181"
       style="font-style:normal;font-variant:normal;font-weight:normal;font-stretch:normal;font-size:80.84464264px;font-family:'BoomBox 2';-inkscape-font-specification:'BoomBox 2, ';text-align:center;text-anchor:middle;fill:#ff8000;fill-opacity:1"
       d="m 1321.5519,180.15755 -69.9306,0 0,-15.52217 69.9306,0 0,15.52217 z m -27.1638,54.40844 -15.5221,0 0,-46.64735 15.5221,0 0,46.64735 z" /><path
       id="path4183"
       style="font-style:normal;font-variant:normal;font-weight:normal;font-stretch:normal;font-size:80.84464264px;font-family:'BoomBox 2';-inkscape-font-specification:'BoomBox 2, ';text-align:center;text-anchor:middle;fill:#ff8000;fill-opacity:1"
       d="m 1358.345,211.28274 -11.1565,-24.73846 q -0.4851,-0.97014 -1.3744,-0.97014 -0.9701,0 -1.4552,0.97014 l -11.2374,24.73846 25.2235,0 z m 27.9723,23.28325 -17.0582,0 -5.4166,-11.64162 -36.1376,0 -5.4166,11.64162 -17.139,0 29.8316,-64.02895 q 3.2338,-7.03349 10.7524,-7.03349 3.638,0 6.3867,1.85943 2.7487,1.85943 4.2848,5.17406 l 29.9125,64.02895 z" /><path
       id="path4185"
       style="font-style:normal;font-variant:normal;font-weight:normal;font-stretch:normal;font-size:80.84464264px;font-family:'BoomBox 2';-inkscape-font-specification:'BoomBox 2, ';text-align:center;text-anchor:middle;fill:#ff8000;fill-opacity:1"
       d="m 1456.8442,219.04382 q 0,6.38673 -4.6082,10.99487 -4.5273,4.5273 -10.914,4.5273 l -35.0057,0 q -6.3868,0 -10.9949,-4.5273 -4.5273,-4.60814 -4.5273,-10.99487 l 0,-38.88627 q 0,-6.46757 4.5273,-10.99487 4.5273,-4.5273 10.9949,-4.5273 l 46.6473,0 0,15.52217 -45.1113,0 q -0.6467,0 -1.1318,0.48507 -0.4042,0.40422 -0.4042,1.05098 l 0,35.73333 q 0,0.40422 0.3234,1.05098 0.4042,0.56591 1.2126,0.56591 l 31.8528,0 q 1.6169,0 1.6169,-1.61689 l 0,-10.10558 -15.603,0 0,-15.52217 31.1252,0 0,27.24464 z" /><path
       id="path4187"
       style="font-style:normal;font-variant:normal;font-weight:normal;font-stretch:normal;font-size:80.84464264px;font-family:'BoomBox 2';-inkscape-font-specification:'BoomBox 2, ';text-align:center;text-anchor:middle;fill:#ff8000;fill-opacity:1"
       d="m 1529.5639,234.56599 -62.1695,0 0,-69.93061 62.1695,0 0,15.52217 -46.6474,0 0,11.64163 42.7668,0 0,15.52217 -42.7668,0 0,11.72247 46.6474,0 0,15.52217 z" /></g></svg>